Download, Enjoy And Seed !!

----------------------------

Screenshots : 
 
http://image.bayimg.com/famgjaadk.jpg
 
http://image.bayimg.com/famgkaadk.jpg

-----------------------------------------------------------------

Format                                   : Windows Media
File size                                : 195 MiB
Duration                                 : 16mn 0s
Overall bit rate mode                    : Constant
Overall bit rate                         : 1 702 Kbps
Maximum Overall bit rate                 : 867 Mbps
Encoded date                             : UTC 2011-05-05 20:33:25.906

--------------------------------------------------------------------------

Video
ID                                       : 1
Format                                   : VC-1
Format profile                           : MP
Codec ID                                 : WMV3
Codec ID/Info                            : Windows Media Video 9
Codec ID/Hint                            : WMV3
Duration                                 : 16mn 0s
Bit rate mode                            : Variable
Bit rate                                 : 1 496 Kbps
Width                                    : 720 pixels
Height                                   : 406 pixels
Display aspect ratio                     : 16:9
Frame rate                               : 25.000 fps
Bit depth                                : 8 bits
Scan type                                : Progressive
Compression mode                         : Lossy
Bits/(Pixel*Frame)                       : 0.205
Stream size                              : 171 MiB (88%)
Language                                 : Russian

-----------------------------------------------------------------

Audio
ID                                       : 2
Format                                   : WMA
Format version                           : Version 2
Codec ID                                 : 161
Codec ID/Info                            : Windows Media Audio
Duration                                 : 16mn 0s
Bit rate mode                            : Constant
Bit rate                                 : 858 Mbps
Channel(s)                               : 2 channels
Sampling rate                            : 48.0 KHz
Bit depth                                : 16 bits
Stream size                              : 95.9 GiB
Language                                 : Russian

--------------------------------------------------------------------------

Do Not Forget To Seed As well !!
